<?xml version="1.0" encoding="utf-8"?>
<!-- Generator: Adobe Illustrator 25.0.1, SVG Export Plug-In . SVG Version: 6.00 Build 0)  -->
<svg version="1.1" id="Слой_1" xmlns="http://www.w3.org/2000/svg" xmlns:xlink="http://www.w3.org/1999/xlink" x="0px" y="0px"
	 viewBox="0 0 1387.7 1387.7" style="enable-background:new 0 0 1387.7 1387.7;" xml:space="preserve">
<style type="text/css">
	.st0{fill-rule:evenodd;clip-rule:evenodd;fill:#FFFFFF;}
	.st1{fill:#FFFFFF;}
</style>
<path class="st0" d="M721.2,1033.9c-6.6,0.9-11.2,3.6-13.4,7.8c-1.2,2.1-1.8,4.5-1.7,6.9c-0.1,5.1,2.8,9.8,7.5,11.8
	c2.9,1.4,3.7,1.6,6.1,1.8c2.1,0.1,2.3,0.1,5-0.7c4.7-1.5,6.6-2.7,6.4-4.1c-0.1-0.9-1-1-3.2-0.2c-2.9,1-5.9,1.5-7.4,1.1
	c-1.9-0.4-3.6-1.3-5-2.6c-1.5-1.2-2.3-3-2.3-4.9l-0.2-1.7l2.7-0.2c1.5-0.1,3.9-0.2,5.3-0.2c2.4,0,2.7,0.1,4.2,0.8l1.6,0.8l1.1-0.4
	c1.4-0.5,2.8-1.8,2.8-2.6c0-0.4-0.2-0.8-0.5-1.1c-0.4-0.4-1.1-0.5-5.1-0.6c-10.4-0.4-11.7-0.5-11.8-0.9c-0.2-0.6,1.2-2.9,2.6-4.4
	c0.8-0.8,1.8-1.5,2.8-2c1.1-0.6,2.4-0.8,3.7-0.7c3.1,0,4.9,0.7,5.7,2.2c0.5,0.9,0.6,1,1.5,1c0.8,0,1.5-0.3,1.9-0.9
	c2.1-2.1,0.7-4.2-3.7-5.3C725.8,1034,723.5,1033.8,721.2,1033.9 M665.2,1034.5c-4,1-7.2,2.6-7.2,3.6c0,0.6,0.8,0.5,2.5-0.2
	c1.2-0.5,1.9-0.7,2-0.6s0.4,5.5,0.7,12.1c0.3,7.1,0.5,12.1,0.7,12.5c0.4,1,1.2,1.2,4.4,1c6.2-0.3,11.9-2.4,15.1-5.4
	c1.6-1.6,2.1-2.8,2.1-5.3c0.1-1.4-0.3-2.9-1-4.1c-0.4-1.1-1.1-2-2-2.8c-2.3-1.7-5.3-2.2-8-1.3c-1.1,0.5-2.2,1-3.2,1.6
	c-1.5,0.9-2.1,1.1-2.3,0.9s-0.3-2.1-0.4-6c-0.1-3.2-0.2-5.8-0.2-6C668.1,1034,667,1034,665.2,1034.5 M686.1,1034.3
	c-2.7,0.3-3.1,0.4-3.1,0.8s0.4,0.5,2.3,0.7c3.3,0.4,3.3,0.3,3.3,7.2c0,2.9,0,8.2,0,11.7c0,5,0,6.6,0.2,7.1l0.3,0.7l2.6-0.1
	c4.1-0.1,5.9-0.5,5.9-1.3c-0.4-0.2-0.8-0.3-1.2-0.3c-2.4-0.2-2.5-0.4-2.5-14.4v-11.5l-0.7-0.4
	C692.4,1034.1,689.1,1033.9,686.1,1034.3 M639.6,1035.5c-1,0.3-2.2,1.1-4.8,3.3c-0.7,0.6-1.4,1.2-2.2,1.6c-0.2-0.7-0.2-1.4-0.2-2.1
	c0-2.4-0.2-2.8-1.8-2.8c-2.6,0.5-5.1,1.3-7.4,2.5c-2.9,1.7-2,3.7,1,2.2c1.9-1,2-0.9,2,1.2c0,1,0.2,3.4,0.3,5.3c0.2,2,0.5,6,0.6,9
	c0.3,5.8,0.5,7.5,1.1,8.2c0.8,0.9,7.4,0.4,11.2-0.9c4.7-1.5,8.6-4.4,9.6-6.9c0.6-1.9,0.4-3.9-0.4-5.7c-0.8-1.4-2-2.5-3.4-3.2
	c-0.3-0.1-0.6-0.2-0.6-0.3c0.3-0.5,0.6-1,1-1.5c1.6-2,1.7-2.3,1.6-4.1c0-1.8-0.9-3.5-2.3-4.5
	C643.5,1035.3,641.5,1034.9,639.6,1035.5 M777.1,1035.9c-2.8,0.4-3.7,0.9-4.6,3c-0.6,1.4-0.5,3.1,0.2,4.4c0.8,1.5,2,1.9,2.7,1
	c0.3-0.4,0.3-0.6,0-1.5s-0.3-1,0-1.6c0.9-1,2.2-1.6,3.5-1.7c2.3-0.2,4.6,0,6.8,0.4c1.3,0.3,3.3,1.9,3.5,2.7s-0.2,1.6-1.2,2.3
	c-1.8,0.8-3.7,1.3-5.6,1.5c-2.6,0-4.1,2.2-2.6,4c0.5,0.6,0.8,0.7,3.4,1c3.5,0.4,4.5,0.7,5.8,1.4c1.5,0.7,2.1,2.5,1.4,4
	c-0.1,0.2-0.2,0.4-0.4,0.6c-2,1.8-4.6,2.7-7.2,2.4c-3.5-0.4-6.8-1.7-9.7-3.7c-1-0.8-1.1-0.8-1.7-0.4c-0.9,0.4-2.9,3.1-2.9,3.8
	s0.9,1.4,3.7,2.8c2.1,1.2,4.5,1.8,7,1.8c3.5,0,5.3-0.6,10.4-3.3c4.3-2.3,6.5-4.8,6.5-7.4c0-0.7-0.1-1.4-0.3-2
	c-1-1.4-2.4-2.5-4.1-3.2l-1.7-0.8l0.8-0.4c1.4-0.6,2.4-1.9,2.6-3.4c-0.1-0.8-0.4-1.5-0.8-2.2c-0.8-1.4-0.9-1.6-3.3-3
	c-3.5-2.1-4.8-2.5-8.3-2.6C779.8,1035.8,778.4,1035.9,777.1,1035.9 M594.5,1037.6c-5,1.3-7.2,2.5-9.6,5c-1.5,1.5-2.6,3.5-3.1,5.6
	c-1.1,3.4-0.7,7.1,1,10.3c3.5,6.9,10.3,9.5,19.3,7.2c4.9-1.3,9-4.6,11.2-9.2c0.7-1.2,1-2.6,0.9-4c0.3-4.1-1.3-8.1-4.3-10.9
	c-3.3-3.3-5.8-4.4-10.3-4.5C597.9,1036.9,596.2,1037.1,594.5,1037.6 M811,1038.8c-0.3,0.1-0.4,0.4-0.4,0.7c0,0.6,0.8,1.1,2.2,1.4
	c1.3,0.1,2.5,0.9,3.1,2.1c1,1.3,1.7,2.8,2.2,4.4c0,0.3-0.7,1.1-2,2.2c-2.9,2.5-10.8,10.4-11.3,11.4l-0.5,0.9l0.6,1
	c1.1,2.1,3.1,3.1,7.1,3.6c3.5,0.5,4.8,0.2,8.4-1.4c4.4-2.1,4.2-2,5.2-0.2c0.5,0.8,1,1.6,1.7,2.3l0.9,0.8l4,0.4
	c4.3,0.4,4.9,0.4,4.9-0.6c0-0.4-0.4-0.8-1.2-1.3c-2.2-1.5-3-2.9-5.5-10c-3.9-10.7-7.3-16.3-10.6-17.3
	C816.8,1038.8,813.9,1038.6,811,1038.8 M570.1,1040.6c-0.6,0.1-4.5,0.5-8.6,0.9c-3.4,0.3-6.8,0.7-10.1,1.3c-5.4,1.3-9.9,3.8-8.8,5.1
	c0.4,0.5,1.2,0.4,3.8-0.3c1.9-0.6,3.8-0.9,5.8-0.9c0.5,0.1,0.6,0.4,1,1.9c0.3,2,0.5,4,0.6,6.1c0.2,2.4,0.4,5.4,0.5,6.7
	c0.3,2.6,1.3,7.5,1.7,8c0.7,0.9,3.5-0.2,5.8-2.3c1.3-1.2,1.6-1.6,1.5-2.1s-0.3-0.7-1-0.9c-0.3-0.1-0.7-0.2-1-0.4
	c-0.2-0.2-1.8-15.4-1.8-16.8v-1.1l1.1-0.4c0.8-0.2,1.6-0.4,2.5-0.5c3.5-0.4,7.9-1.4,8.9-2c1.1-0.7,1.5-1.6,0.8-2.1
	C572.4,1040.3,571.8,1040.3,570.1,1040.6 M594.6,1040.6c-4.2,1-7.1,5.2-7.1,10.1c0,2,0.2,2.8,1.5,5.6c1.3,2.6,3.4,4.8,6.1,6
	c1.3,0.8,2.8,1.2,4.2,1c1.2,0.1,2.5-0.1,3.5-0.7c1.9-1,3.4-2.7,4.3-4.6c0.7-1.5,0.8-1.6,0.6-4s-0.1-2.5-1.6-5.5
	c-1.9-3.9-3.4-5.6-6.1-6.9C598.4,1040.6,596.5,1040.2,594.6,1040.6 M636.9,1040.9c-1,0.6-1.9,1.2-2.7,2c-1.5,1.4-1.5,1.4-1.5,2.6
	c0,0.7,0.1,1.7,0.2,2.3c0.2,1.3,0.3,1.4,3,0.7s4.5-1.4,5.5-2.3s1.2-1.9,0.5-3.6C641,1040.4,639.2,1039.8,636.9,1040.9 M845,1041.9
	c-0.2,0.3-0.1,0.4,1.1,1c0.6,0.3,1.1,0.8,1.5,1.4c0.4,0.8,0.4,1.2-0.8,11.2c-0.8,7.1-1.3,10.6-1.6,11.2c-0.4,0.7-1,1.3-1.6,1.8
	c-1.4,1.2-1.3,1.7,0.4,1.7c2-0.1,4-0.5,5.9-1.2c1-0.7,1.6-2.8,2.1-6.4c0.1-1.3,0.3-2.6,0.6-3.8c0.2-0.6,2.1-1.3,3.6-1.3h1l4.2,5.9
	c2.3,3.2,4.9,6.7,5.8,7.8c1.9,2.2,2.9,2.7,6,2.9c1.6,0.1,2,0.1,2.3-0.3c0.3-0.3,0.2-0.5-0.4-1.3c-0.8-0.9-9-11.7-11.4-15l-1.4-1.9
	l0.6-0.5c0.8-0.5,1.6-1,2.5-1.4c4.4-2.2,8.9-5.9,8.7-7.1c-0.1-0.5-1.1-1-3.2-1.5c-1.8-0.5-3.6-0.6-3.8-0.2c-0.1,0.3,0,0.7,0.1,1
	c0.2,0.7,0.2,0.9-0.6,1.9c-2,2.4-4.4,4.6-6.9,6.5c-2.9,1.7-6.4,2.7-6.7,1.9c0-1.5,0.1-2.9,0.3-4.4c0.6-5.2,0.6-6.9,0-7.9
	c-0.6-1-0.5-0.9-3.9-1.5C846.4,1041.7,845.2,1041.6,845,1041.9 M524.2,1046.8c-2.8,0.5-5.4,1.7-7.6,3.4c-1.2,0.8-2.4,1.6-3.7,2.3
	c-0.6,0.2-0.8,0.2-1.2-0.4c-0.4-0.6-0.8-1.3-1.1-1.9c-0.7-1.5-1.2-1.8-3.7-1.8c-1.9,0-3.4,0.3-3.9,0.9c-0.2,0.3-0.1,0.5,0.7,1.3
	c0.8,0.6,1.3,1.5,1.5,2.4c-0.1,0.2-0.2,0.4-0.4,0.6c-0.4,0.4-1.2,0.3-5.3-1c-1.7-0.7-3.5-1-5.3-1c-1.4,0-2.8,0.1-4.1,0.4
	c-2.2,0.5-3.4,1.6-4.8,4.3c-0.7,1.4-1.2,2.9-1.2,4.5l-0.3,2.5l0.8,2c1.4,3.8,4.3,6.8,9.1,9.3c2.4,1.4,5.1,2.2,7.8,2.3
	c1.1,0.1,2.2-0.1,3.1-0.7c2.1-1.2,2.1-2.5,0.1-3.5c-1.4-0.7-1.7-0.7-3.2,0.2c-1.1,0.8-2.7,0.9-3.9,0.2c-1.9-1-3.6-2.4-5-4
	c-4.7-5.6-4.5-11.2,0.4-13.7c1.2-0.8,2.7-1.1,4.1-0.7c4.3,0.8,8.3,2.6,8.8,4c0.1,0.3,0.9,5.3,1.8,11.2c2.3,15.8,2.4,16.4,2.8,16.9
	c0.8,1.3,4.2,2.6,6.7,2.6c2.3,0,2.5-0.3,1-1.8l-1.2-1.3l-0.9-6c-0.5-3.3-1.4-9.3-2.1-13.4c-1.4-9-1.5-9.6-0.4-11
	c1.6-1.8,3.5-3.3,5.7-4.3c1-0.6,2.2-0.9,3.4-0.7c0.9,0,1.8,0.1,2.7,0.3c1.6,0.7,2.9,1.9,3.7,3.5c1.8,3.9-0.9,12-5,15
	c-1.1,0.8-1,0.8-4.1,0.3c-0.9-0.1-1.1-0.1-1.9,0.7c-1.8,1.6-1.6,2.8,0.7,3.5c2,0.6,4.3-0.1,7.2-2.1c2.3-1.8,4.3-3.9,6.1-6.1
	c2.6-3.9,3.6-8.2,2.5-11.3c-0.6-2.1-1.8-4-3.4-5.6c-0.7-0.6-1.4-1.2-2.2-1.8C527.4,1046.5,525.8,1046.4,524.2,1046.8 M674,1047.9
	c-2.2,0.6-4.1,1.6-4.5,2.2c-0.3,0.4-0.4,1.1-0.4,3.6c0,1.7,0.1,3.7,0.2,4.4c0.2,2,0.7,2.2,3.8,1.8c3.9-0.5,7-2,7.8-3.7
	c0.3-0.7,0.4-1.5,0.3-2.3c-0.3-2.9-1.6-5.2-3.3-5.9C676.6,1047.4,675.9,1047.4,674,1047.9 M890.8,1048c-3.2,0.5-4.6,1-5.3,1.8
	s-0.6,1.2,0,1.8c0.4,0.4,0.8,0.5,1.9,0.5c0.6,0,1.2,0,1.8,0.2c0.7,0.2,1.3,1.9,3.9,9.3c1.3,4,2.8,8.3,3.3,9.6
	c1.2,3.4,1.2,3.7-0.7,5.6c-3.4,3.2-6.9,6.2-10.7,9c-3.7,2.9-4.2,3.5-3.7,4.4c0.4,0.8,1,1,4.4,1.5c4,0.6,6.3,0.6,7.4,0.1
	s1.2-1.3-0.1-2.3c-1.9-1.3-1.6-1.9,2.7-5.6c3.7-3.2,9-8.8,10.2-10.8c1.9-3.1,11.6-15.2,13.3-16.6c0.6-0.5,1.3-0.8,2-1.1
	c1.9-0.6,2.7-1.2,2.6-2c-0.1-1-1.3-1.5-3.6-1.4c-1.2,0-2.4,0.3-3.5,0.9c-2.1,1.1-5,3.9-7.8,7.7c-2.3,3.1-4.8,5.8-5.4,5.8
	s-0.5,0-3.5-8.3c-1.3-3.7-2.7-7.2-3-7.8C895.8,1047.6,894.9,1047.3,890.8,1048 M636.3,1051.4c-0.8,0.1-1.6,0.3-2.3,0.6l-0.7,0.3
	l0.1,2.9c0.1,1.6,0.2,3.5,0.3,4.2c0.1,1.1,0.2,1.2,0.8,1.3c1,0,2-0.1,3-0.3c3.3-0.6,6-2,6.6-3.4c0.3-0.8-0.3-2.9-1.3-4
	C641.3,1051,639.9,1050.7,636.3,1051.4 M817.8,1053.2c-2.1,1.8-4,3.8-5.7,6.1c-0.4,0.8-0.4,0.8,0.1,1.4c0.4,0.5,0.9,0.9,1.4,1.2
	c0.8,0.5,1.2,0.5,2.9,0.4c2.1-0.1,4.2-0.8,6-1.9l1-0.6l-0.5-1.3c-0.5-1.3-2.1-5.3-2.7-6.5c-0.2-0.4-0.4-0.7-0.5-0.7
	C819.2,1052,818.5,1052.6,817.8,1053.2 M454.9,1056.9c-3.7,0.9-4.3,1.1-4.4,1.8s0.3,1,2.4,1c1.2-0.2,2.4,0.2,3.2,1
	c1.6,1.2,3.3,3,3.5,3.7c0.1,0.4-0.4,1.5-2.3,4.5c-3.9,6.2-6.9,11.8-6.9,12.8c0,0.7,1.1,1.8,2.7,2.5c1.5,0.7,1.6,0.7,3.8,0.5
	c2.3-0.1,4.5-0.5,6.6-1.4c1.2-0.7,2.3-1.6,3.3-2.5c0.9-0.9,1.9-1.7,3-2.4c0.7-0.3,0.7-0.3,1.6,0.6c1.3,1.4,2.9,2.4,3.8,2.4
	c2.7-0.3,5.4-0.8,8-1.5c0.2-0.2,0.3-0.5,0.3-0.8c0-0.5-0.3-0.7-1.7-1.2c-2.4-0.9-3.7-2.2-7.4-7.4c-3.6-5-7.9-10-10-11.7
	c-0.9-0.7-1.8-1.3-2.8-1.9C459.9,1056.1,458.4,1056.1,454.9,1056.9 M943.9,1058c-1.2,0.2-2.3,0.6-3.5,0.9
	c-5.4,1.6-9.7,5.6-11.8,10.7c-0.7,1.4-0.9,3-0.8,4.5c0,2.2,0.1,2.8,0.5,3.6c1.2,2.3,3.2,3.8,6.6,5.1c3,1,6.2,1.3,9.3,1
	c2.7-0.3,5.7-1.3,6.1-2s0.5-0.8,0-1.2s-1.7-0.5-3.6,0c-2.6,0.6-5.4,0.3-7.9-0.9c-3.4-1.9-5.1-5.7-4.4-9.5c1-4,3.9-7.3,7.8-8.7
	c1.5-0.5,3.1-0.7,4.6-0.6c2.6,0,3.1,0.1,3.8,0.5c1.2,0.7,1.2,1.3,0.1,1.9c-1.8,1-1.7,1.8,0.3,2c2.9,0.2,5.4-2.7,4.3-5
	c-0.5-1-1.8-1.8-3.9-2.2C949.1,1057.8,946.5,1057.7,943.9,1058 M966.2,1061.2c0,0.2,0.5,0.6,1.1,0.9c0.6,0.3,1.1,0.8,1.5,1.4
	c0.4,0.8,0.3,1-1.7,10.8c-1.1,5.5-2.3,10.4-2.5,11c-0.4,0.8-1,1.5-1.8,2c-0.7,0.6-1.3,1.1-1.3,1.3c0.2,0.5,1.7,0.7,4.4,0.5
	c2.1-0.2,2.8-0.3,3.2-0.7c0.9-0.8,1.8-3.1,2.5-6.6c0.8-4,0.8-4,3.6-4.2c1.4-0.1,1.7-0.1,2,0.3s1.9,3,3.7,6.2
	c6.1,10.6,6.7,11.2,11.1,11.6c2.3,0.2,2.4-0.1,1-2.1c-0.6-0.8-2.6-4-4.5-7.1c-1.9-3.1-4-6.4-4.6-7.4c-0.5-0.7-1-1.5-1.3-2.3
	c-0.2-0.6-0.2-0.7,0.7-1.1c0.5-0.3,1.7-0.7,2.5-1.1c3.9-1.5,9.2-5,9.2-6.2c0-0.8-5.3-2.8-6.6-2.5c-0.6,0.2-0.6,0.3-0.1,1.5
	c0.2,0.5-4,4.4-6.2,5.8c-1.1,0.7-2.3,1.4-3.5,1.9c-1.7,0.7-5,1.3-5.4,1.1s-0.1-2,0.8-6.2c1-5,1-6.7-0.3-7.3c-1-0.4-2-0.7-3-1
	C967.9,1060.9,966.2,1060.7,966.2,1061.2 M426.7,1062.4c-3.6,0.9-4.9,1.8-9.5,6c-0.7,0.8-1.5,1.4-2.5,1.8c-0.4-0.1-0.6-0.4-1.1-2.3
	c-0.4-1.5-1-2-2.3-2c-1,0-1.9,0.4-6.4,2.6c-4.3,2.1-5.3,2.7-5.4,3.2c-0.4,1.5,2.5,2,5,0.9c2.2-1,2.2-0.9,3.4,3.9
	c1.5,5.8,6.5,27.8,6.5,28.5c0,0.4-0.2,0.8-0.4,1.2c-0.2,0.4-0.3,0.8-0.3,1.3c0.3,2.3,6.1-0.9,7.3-4.1l0.4-1.1l-2.3-10.4
	c-1.3-5.7-2.5-11-2.8-11.7c-0.8-2.4-1.1-4.2-0.7-5c0.6-1.5,6.2-6.4,8.7-7.7c0.8-0.4,1.6-0.6,2.5-0.4c0.9,0.1,1.7,0.2,2.6,0.4
	c2.3,0.8,3.9,3.1,3.8,5.6c-0.2,4-1.7,7.8-4.3,10.9c-1.6,1.7-2.1,2-4.3,1.8c-1.8-0.2-1.9-0.1-2.8,0.6c-3,2.2-1.7,4.5,2.3,4.3
	c4.5-0.2,11.1-5.9,14.5-12.4c2.1-4.1,2.2-6.5,0.3-10.1c-1.1-2.2-2.8-4-4.9-5.2c-1-0.7-2.3-1-3.5-0.9c-1.4-0.1-2.9,0.1-4.2,0.5
	 M461.1,1070.3c-1.7,2.6-4,7.1-4,7.7c0,0.8,0.5,1.3,1.5,1.8c1.5,0.6,2.9,0.4,5-0.7c1.7-0.9,3.2-2.1,4.5-3.5c0.2-0.3-0.1-0.9-1.5-2.7
	c-1.2-1.7-2.5-3.3-4-4.8C462.1,1068.8,461.6,1069.5,461.1,1070.3 M1007.4,1071.1c-0.7,0.2-0.7,0.6,0.1,1.3c0.8,0.8,1.2,2,1,3.1
	c-0.1,0.5-1.2,4.2-2.4,8.2c-2.2,7-3.5,11.9-3.5,12.9c0,0.7,1.4,1.2,3.6,1.4c1,0.2,2,0,2.9-0.4c0.7-0.3,1.2-0.8,1.5-1.5
	c0.3-0.5,0.7-1,1.1-1.3c1.3-0.4,2.7-0.7,4.1-0.8c6.3-0.9,13.4-2.4,16.3-3.6c0.7-0.3,1.5-0.5,2.3-0.7c0.9,0.2,0.7,2.3-0.9,8.1
	c-0.4,1.6-0.8,3.1-1.1,4.7c-0.1,1.1-0.1,1.3,0.6,2c1.1,1.1,5.2,2.1,6.1,1.5c0.3-0.2,0.3-0.4,0-1.3c-0.4-1.4-0.3-2.2,1.2-8.2
	c1.7-6.7,2.2-9.7,2.2-13.6c0-2.4,0-3.4-0.3-3.7c-1.4-1-2.9-1.8-4.6-2.2c-1.3-0.2-1.5,0-1,1.4c0.4,1.1,0.4,1.2-0.1,1.8
	c-0.6,0.9-7.2,5.6-9.5,6.8c-5,2.6-13.5,5.1-14.5,4.3c-0.5-0.4-0.5-0.9,0.7-5.9c2-8.2,2.2-12.5,1-13.8c-0.6-0.6-0.8-0.6-3.4-0.7
	C1009.7,1071.1,1008.6,1071.1,1007.4,1071.1 M385.3,1072.5c-1.6,0.2-3.2,0.9-3.2,1.3c0.1,0.3,0.3,0.6,0.5,0.8
	c0.5,0.5,0.5,0.7,0.2,1.6c-0.8,2.7-2,5.3-3.5,7.8c-1.3,2-3.1,3.7-5.1,5.1l-1,0.5c-0.7-0.9-0.9-1.8-1.4-4c-1.5-6.1-2-7.3-3-8
	c-0.4-0.2-0.9-0.4-1.4-0.4c-2.1,0.2-4.2,0.7-6.2,1.3c-2.4,1.2,3.2,0.8,3.2,2.1c0.4,0.8,5.5,20.3,5.5,21.1c0.2,0.6-1.7,3.7-1.3,4.1
	c0.1,0.8,6.8-2.6,6.8-4c0.4-1.3,0.2-2.8-0.8-6.9c-0.8-3.2-0.9-3.3-0.4-3.8c1-0.9,2.1-1.7,3.4-2.2c2.3,1.2,4.4,2.6,6.5,4.1
	c5.9,3.9,9.1,5.7,10.6,6.1c1.5,0.4,5.7-0.9,6-1.7c0.1-0.2-0.2-0.6-0.9-1c-2.3-1.4-7.4-4.5-9.9-6c-1.5-0.9-3.8-2.3-5.2-3.1
	c-1-0.6-1.9-1.2-2.8-1.9c-0.4-0.4-0.1-0.9,2.2-3.4c3.5-3.9,6.3-9.1,5.2-9.7c-1.3-0.3-2.6-0.2-3.9,0.1"/>
<path class="st0" d="M743.8,132.1c-0.5,0.4-0.7,0.8-0.9,2.6c-0.3,2-0.3,2.1,0.2,2.8c0.3,0.4,0.6,0.7,0.8,0.7
	c0.8,0,10.1,1.2,10.2,1.3c0.1,0.1-1.1,10.9-1.2,11.1c-0.6-0.5-1.2-1-1.7-1.6c-2.5-2.8-5.9-4.7-9.6-5.4c-2.8-0.5-5.6-0.5-8.4,0
	c-8.5,2-15.2,10.2-15.3,18.9c0.2,7.5,6.4,13.5,13.9,13.3c7.2-0.2,13.1-5.9,13.3-13.2c0.1-3.6-1.4-7.1-4-9.5c-1-1-2.1-1.9-3.4-2.6
	l-1.6-0.8h1.3c5.5,0,9.8,3,12.6,9c1.3,2.8,1.5,4.2,0.8,9.3c-0.5,3.8-0.6,4.5-1.3,6.1c-2.5,5.4-7.7,10.2-19.8,18.3
	c-13.5,9-22.7,17-31.1,27c-11.6,13.7-18.3,28.3-20,43.4c-0.3,4.4-0.2,8.9,0.4,13.3c0.1,0.7,0.2,1.5,0.2,2.2c-1.3,0-2.5-0.1-3.8-0.3
	c-3.6-0.4-3.7-0.4-4.3,0s-0.7,0.7-1,3.6c-0.1,1.1-0.1,1.3,0.4,1.9l0.6,0.6l22.7,2.7l22.7,2.7l0.6-0.5c0.5-0.5,0.7-0.8,0.9-2.7
	c0.2-2,0.2-2.2-0.3-2.8s-0.8-0.7-2.4-0.8l-1.9-0.2l-1.3-1.3c-2.3-2.4-3.8-5.7-4.8-10.6c-0.5-2.4-0.5-3.4-0.5-8.7
	c0-6.6,0.3-9.5,1.8-14.9c2.9-10.8,9.4-21.3,21.7-35.4c6.5-7.4,12.4-14.6,16-19.7c1.2-1.7,2.3-3.1,2.3-3.1s-11.5,96.2-11.5,96.4
	s-2.5-0.2-5.4-0.6c-5.2-0.6-5.3-0.6-5.8-0.2L725,285c-0.2,0.7-0.3,1.5-0.4,2.2c-0.3,2-0.2,2.2,0.2,2.8l0.5,0.6l23.6,2.8
	c23,2.8,23.6,2.8,24.2,2.4s0.9-1,1.1-3.3c0.2-1.5,0.1-1.7-0.4-2.2s-0.9-0.6-5.5-1.2c-1.8-0.2-3.5-0.4-5.2-0.8
	c-0.2-0.1,0.4-6.2,2.8-25.7c1.7-14,3.1-25.8,3.2-26.3c0.1-0.4,4.9-5.6,18.5-19.6c10-10.4,18.3-18.9,18.4-18.8s-11.2,94.1-11.3,94.2
	s-2.5-0.2-5.4-0.6l-5.3-0.6l-0.6,0.6c-0.5,0.5-0.6,1-0.8,2.6c-0.2,1.9-0.2,2.1,0.2,2.7c0.3,0.4,0.7,0.6,1.2,0.8
	c0.4,0.1,11.1,1.4,23.7,2.9l23,2.8l0.6-0.6c0.5-0.5,0.7-1.2,0.8-1.9c0.3-2.3,0.3-3-0.3-3.6c-0.6-0.6-1.1-0.6-5.5-1.1
	c-2.7-0.3-5.1-0.6-5.2-0.7s3-27.6,16.3-138c0.5-4.2,1-7.7,1-7.7s2.2,0.2,4.8,0.5c2.6,0.3,5,0.6,5.4,0.6c1.2,0,1.7-0.8,2-3.1
	c0.2-1.8,0.2-2.1-0.2-2.7c-0.4-0.5-1-0.8-1.6-0.8c-6.3-0.8-45.2-5.4-45.7-5.4c-1.3,0-1.7,0.6-2,3c-0.3,2-0.2,2.1,0.2,2.8
	c0.3,0.4,0.6,0.7,0.8,0.7c0.4,0,10.3,1.2,10.4,1.3s-1.1,9.3-2.4,20.5l-2.5,20.5l-4.2,4.2c-2.3,2.3-10.6,10.8-18.4,18.8
	c-7.8,8-14.3,14.5-14.3,14.5s2.2-18.6,4.9-41.2l5-41.1h0.6c0.3,0,2.7,0.3,5.3,0.6l4.7,0.6l0.7-0.5c0.6-0.4,0.7-0.7,0.9-2.7
	c0.4-3.6,3.2-2.9-23.9-6.2l-23.7-2.8c-0.4,0-0.8,0.1-1.1,0.4 M582.7,137.6l-22.7,6l-2,0.5l-1,1.7l-1,1.7l0.3,1.5
	c0.5,2.5,0.8,2.9,2.6,3.9l1.7,0.9l4.3-1.1c2.4-0.6,4.3-1.1,4.4-1c0.1,0.1,36.3,137.1,36.4,138c0.1,0.7,0.1,0.8-0.8,1l-4.3,1.1
	l-3.4,0.9l-0.8,1.4c-0.3,0.5-0.6,1-1,1.4c-0.5-0.2-0.9-0.4-1.3-0.7c-1.4-0.8-1.5-0.9-3.8-0.2c-1.3,0.3-1.8,0.4-1.9,0.2
	c-0.2-0.6-17.4-65.8-17.4-66.3c0-0.4,0.2-0.6,1.6-0.9l1.7-0.4l1-1.7l1-1.7l-0.5-2l-0.5-2l-1.7-1.1l-1.7-1l-3.9,1
	c-6.4,1.6-12.9,2.6-19.5,3c-9.3,0.6-23.2-3.4-34.1-9.7c-1.2-0.7-2.2-1.3-2.2-1.3c-0.2-0.2-10.8-40.8-10.6-40.9s1.7-0.6,3.6-1
	c5.2-1.3,4.8-1.1,5.9-3.1l1-1.7l-0.5-2l-0.5-2l-1.7-1l-1.7-1l-23,6.1l-23,6.1l-1,1.7l-1,1.8l0.5,2c0.2,0.8,0.5,1.6,0.9,2.3
	c0.2,0.1,1,0.6,1.8,1l1.5,0.8l4.3-1.1c2.9-0.8,4.3-1.1,4.4-0.9c0.2,0.5,36.6,138.5,36.6,138.6c0,0.1-2,0.6-4.3,1.2l-4.3,1.1l-1,1.7
	l-1.1,1.7l0.5,2.1l0.5,2.1l1.7,1l1.7,1l45.9-12.4l46.1-12.2l0.8-1.4c0.2-0.5,0.5-1,0.9-1.4c0.5,0.2,1,0.4,1.4,0.7
	c0.5,0.3,1,0.6,1.6,0.7c0.4,0,45.8-11.9,45.9-12.1s0.5-0.8,1-1.7l1-1.6l-0.5-2.1l-0.5-2.1l-1.7-1l-1.7-1l-4,1
	c-2.2,0.6-4.2,1.1-4.4,1.1c-0.4,0.1-1.7-4.6-18.7-69c-10-38-18.3-69.2-18.3-69.4s0.9-0.6,4.3-1.5l4.4-1.2l1-1.7l1-1.8l-0.5-1.9
	c-0.2-0.8-0.4-1.5-0.7-2.2c-1.1-0.8-2.3-1.5-3.6-2c-0.2,0-9.7,2.5-21.1,5.5 M923,169.2c-1.2,0.4-1.2,0.5-2.3,2.6
	c-0.4,0.8-0.8,1.6-1.1,2.5c0.2,0.5,0.4,1,0.7,1.4c1.3,2,2.3,4.2,2.9,6.5c0.8,3.1,0.8,7.6-0.2,12.4c-1.1,5.4-2.6,10.7-4.4,15.9
	c-1.5,4.6-1.7,5.1-1.4,5.8c0.8,1.8,2.7,2.9,4.7,2.6c0.5-0.1,7.2-5.1,17.1-12.7l16.3-12.5l7.3,3.5c4,1.9,7.3,3.6,7.4,3.7
	s-96.5,106.3-100.6,110.5l-0.9,1l-3.3-1.6l-3.3-1.6l-1.6,0.5l-1.6,0.5l-0.9,2l-0.9,2l0.5,1.5c0.2,0.5,0.4,1.1,0.6,1.6
	c0,0,20.2,9.9,44.8,21.9s45.7,22.3,47,22.9l2.2,1.1l1.5-0.5l1.5-0.5l1-1.9l1-1.9l-0.5-1.6l-0.5-1.6l-3.2-1.6c-2.6-1.3-3.2-1.7-3.1-2
	s2.8-13.9,6-30.4c3.2-16.5,5.9-30,6-30.1s2,0.9,4.4,2.1l4.4,2.1l1.6-0.5l1.6-0.5l0.9-2l0.9-2l-0.5-1.4c-0.2-0.6-0.4-1.1-0.8-1.6
	c-0.2-0.1-6.9-3.4-15-7.4c-12.9-6.3-14.6-7.2-14.4-7.5s49.8-54.8,52.4-57.6c0.3-0.3,0.8-0.1,3.7,1.3l3.3,1.7l1.5-0.5l1.5-0.5l1-1.9
	l1-1.9l-0.5-1.6l-0.5-1.6l-41.5-20.2c-22.8-11.1-41.7-20.3-42-20.3C924.1,168.8,923.5,168.9,923,169.2 M355.5,228.3l-19.7,13
	l-0.5,2.2l-0.5,2.3l1.1,1.8c1.2,1.9,1.2,1.9,4.3,2.5l1.4,0.3l3.5-2.3c1.9-1.3,3.6-2.3,3.7-2.3s5,7.4,10.9,16.4l10.7,16.4l-2.8,0.1
	c-2.7,0-5.4,0.7-7.9,1.9c-6,2.7-10.4,8-12,14.3c-1.4,5.5-0.3,11,3.1,16.2c3.6,5.4,10.3,7.8,16.5,6c3.6-1.2,6.7-3.7,8.7-7
	c2.3-4.3,2.5-9.5,0.4-13.9c-1.1-1.9-2.5-3.6-4.1-4.9c-0.9-0.7-1.3-1-0.9-0.9c2.7,0.8,6.1,3.9,7.6,7.1c1.6,3.2,2,5.5,2,11.2
	c0,4.9-0.4,9.7-1.4,14.5c-1.7,7.9-2.4,16-2.2,24c0.1,7,0.4,9.2,1.9,13.5c2.5,7.7,7.4,14.6,12.8,18.2c2.3,1.4,4.7,2.7,7.2,3.7
	c0.4,0.1,0.4,0.2,0.1,0.5s-3.5,2.4-7.4,4.9c-2.8,1.7-5.5,3.6-8.1,5.7c-2.1,2.3-2,5.1,0.4,7.8c1.8,2,1.6,1.9,13.2,6.5
	c7.1,2.8,10.6,4.3,19.5,8.5c4.2,2,9.3,4.3,11.3,5.2c9,3.9,9.3,4,10.6,4c2.5,0.1,4.6-1.8,4.8-4.3c0-0.5,0-0.9-0.1-1.4
	c-0.2-0.6-5-8.2-12.1-19c-6.5-9.9-11.8-18.1-11.7-18.2c0.3-0.3,32-21.1,32.3-21.2c0.2-0.1,4.8,6.8,12.2,18
	c13.3,20.2,12.8,19.5,15.4,19.5c0.9,0.1,1.7-0.2,2.4-0.8c2.1-1.4,2.1-1.6,2.2-10.2c0-4.5-0.1-10.6-0.3-15.1
	c-0.4-7.6-0.4-19.4-0.2-27.6c0.2-5.2,0-6.7-0.8-8.7c-1.3-3-3.9-4.4-6.5-3.7c-1.3,0.4-1.5,0.4-14.4,9c-5.2,3.4-9.5,6.2-9.5,6.2
	c-0.4-0.5-78.3-119-78.3-119.1c1.1-0.9,2.3-1.7,3.6-2.5l3.5-2.3l0.4-2.2l0.5-2.2l-1.2-1.8l-1.2-1.8l-1.9-0.4
	c-0.8-0.2-1.6-0.3-2.4-0.4C375.4,215.3,366.3,221.2,355.5,228.3 M515.4,224.2c0.1,0.2,5.1,19.1,11.1,42.1
	c6.1,23,11.1,41.8,11.3,41.8s5.1-1.3,11-2.8c8.2-2.2,10.7-2.9,10.7-3.2s-4.2-16.2-9.3-35.6l-9.3-35.3l-1.3-0.2
	c-3.6-0.4-7.2-1.2-10.8-2.2c-4.1-1.1-8.1-2.5-12-4.2C516,224.2,515.4,224,515.4,224.2 M915,304.2c-10.4,11.4-19,20.9-19,21
	s26.5,13.3,27,13.3c0.2,0,11.2-54.9,11-55.1S925.4,292.8,915,304.2 M397.7,320.6c0.5,3.3,0.8,8.6,1.1,19.4c0.1,4.8,0.4,10.2,0.6,12
	c1.3,11.6,6.7,20.8,12.7,21.8c1.3,0.2,2-0.2,9.4-5.1l5.8-3.8l-14.6-22.3c-8-12.3-14.7-22.4-14.9-22.5S397.6,320.1,397.7,320.6
	 M1175.2,348l-1.7,1.2l-0.3,1.6c-0.2,0.9-0.3,1.9-0.4,2.3c-0.1,0.6,0.2,1.1,1.9,3.5l2.5,3.5l0.5,0.8l-57.8,41.6
	c-31.8,22.9-57.9,41.6-58,41.6c-0.8-0.8-1.5-1.8-2.2-2.8c-3.1-4.4-2.7-4.1-5.3-4.5l-2.2-0.4l-1.5,1.1c-0.6,0.4-1.2,0.9-1.8,1.4
	c-0.3,0.8-0.5,1.6-0.5,2.5l-0.3,2.1l13.6,19c7.5,10.4,13.7,19.1,13.9,19.3c1.5,0.5,3,0.9,4.6,1c0.7-0.3,1.3-0.7,1.9-1.2l1.7-1.2
	l0.4-2.3l0.4-2.3l-2.5-3.5c-0.9-1.1-1.7-2.4-2.3-3.7c0.2-0.2,23.8-17.2,108.9-78.4l6.7-4.8l8.2,11.4l8.2,11.4l-6.3,4.5
	c-28.3,20.4-109.3,78.6-109.5,78.6c-1-1-1.9-2.2-2.7-3.4c-0.8-1.2-1.7-2.4-2.6-3.5c-0.1,0-1.1-0.2-2.3-0.4l-2.1-0.4l-1.7,1.3
	l-1.7,1.3l-0.4,2.2l-0.4,2.2l13.8,19.1c7.6,10.6,13.9,19.3,14,19.4c0.8,0.2,1.6,0.4,2.4,0.5l2.2,0.3l1.7-1.2l1.7-1.2l0.4-2.3
	l0.4-2.3l-2.5-3.4c-0.9-1.1-1.7-2.3-2.4-3.6c0.1-0.2,115.5-83.2,115.7-83.2s1.2,1.5,2.6,3.4c1.3,1.8,2.5,3.4,2.6,3.5
	c0.8,0.2,1.5,0.4,2.3,0.5l2.1,0.3l1.7-1.2l1.7-1.2l0.3-1.7c0.2-0.9,0.3-2,0.3-2.4c0-0.6-5.9-9-30.8-43.6l-30.8-42.9l-1.9-0.3
	c-1-0.2-2.1-0.3-2.3-0.4C1176.4,347.1,1175.7,347.5,1175.2,348 M224.4,462.5L223,463l-1.7,3.1c-5.5,10.2-12.8,19.4-19,23.9
	c-5,3.5-10.4,6.5-16,8.9c-3.1,1.2-6.2,2.3-9.5,3.1c-0.3,0-37.2-19.5-37.9-20c0,0,0.9-1.9,2.1-4.1c0.8-1.4,1.5-2.9,2.2-4.4
	c-0.1-0.6-0.2-1.2-0.4-1.8c-0.4-1.4-0.5-1.4-2.3-2.4l-1.9-1l-1.7,0.5l-1.7,0.5l-1.4,2.6c-0.8,1.5-5.8,10.9-11.2,21l-9.8,18.4
	l0.5,1.7l0.5,1.7l1.8,1l1.8,1l1.7-0.5l1.7-0.5l2.2-4.2c0.7-1.4,1.5-2.8,2.4-4.1c1.4,0.6,126.9,68,126.9,68.2s-1,2-2.1,4.2l-2.1,4
	l0.5,1.7l0.5,1.7l1.9,1l1.9,1l1.7-0.5l1.7-0.5l21.8-40.8c12-22.4,22.1-41.3,22.4-42l0.6-1.2l-0.5-1.6l-0.5-1.7l-1.9-1l-1.9-1
	l-1.7,0.5l-1.7,0.5l-1,1.9c-0.3,0.7-0.7,1.4-1.2,2c-0.2,0-59.2-31.4-61.5-32.7c0.1-0.7,0.4-1.3,0.7-1.8l1-1.7l-0.5-1.7L230,464
	l-1.8-1c-0.6-0.4-1.3-0.7-2-1C225.6,462.1,225,462.3,224.4,462.5 M209.4,496.2c-3.8,3.3-11.7,8-17.7,10.6c-1.6,0.7-3,1.3-3.1,1.4
	c-0.1,0.1,17.3,9.5,38.7,21s38.9,20.8,39,20.7s2.1-4,4.7-8.7c2.5-4.7,5-9.4,5.5-10.3l0.9-1.7l-32.7-17.5
	c-18-9.6-32.7-17.5-32.8-17.5C211.1,494.8,210.2,495.5,209.4,496.2 M1239.3,496.2l-3,0.3c-7.7,0.9-16.4,3.8-26.8,8.8
	c-9.4,4.5-18.2,10.4-25.9,17.5c-3.1,2.8-10.7,10.7-16.1,16.7c-7.4,8.3-16.1,16.5-20.1,18.9c-4.9,3-10,3.5-18.9,2
	c-0.8-0.2-0.9-0.1-2.2,1.8c-0.7,0.9-1.3,1.9-1.8,3l-0.4,1l1.2,2.4c4.6,8.9,19.4,26.3,27.6,32.5c7.4,5.7,16,9.6,25.2,11.4
	c2.8,0.6,3.4,0.6,9,0.7c3.3,0,6.3-0.1,6.8-0.2c0.8-0.2,0.8-0.2,1,1.1c0.2,0.7,0.3,1.5,0.4,1.7c0.4,1.3,4.9,2,7.3,1
	c1.3-0.5,2.2-1.5,2.7-2.7c0.2-0.8-6.7-36.8-7.2-37.6c-0.5-0.5-1-0.9-1.6-1.2c-2.9-1.6-6.5-0.6-8.1,2.3c-0.4,0.8-0.4,0.9,0,3l0.4,2.1
	l-0.9,0.4c-4.6,1.9-9.7,2.6-14.7,2c-4.9-1-9.7-2.6-14.2-5c-2.8-1.5-8.2-5.2-7.9-5.4c0.1,0,1-0.2,2-0.4c5.4-0.9,10.7-2.6,15.6-5
	c4-2,6.2-3.3,12.2-7.9c11.2-8.4,12.8-9.5,18.5-13.3c3.8-2.5,3.9-2.5,6-2.8c4.5-0.5,9.1-0.4,13.6,0.1c5.6,0.9,8.5,1.9,11.8,4.1
	c5.3,3.5,7.2,7.8,5.5,12.7c-0.9,3.2-3.2,5.8-6.3,7.1c-1.9,0.9-8,2.9-8.3,2.8c-0.4-0.6-0.8-1.3-1-2c-0.8-2.1-1.4-2.8-3.1-3.4
	c-2.2-0.7-4.6,0-6.1,1.7c-0.7,0.9-1.2,2-1.2,3.2c0,0.3,3.2,8.7,7.2,18.8c7,17.9,7.2,18.3,8,18.7c2.7,1.2,5.9,0.5,7.8-1.8
	c1.1-1.6,1.1-2.3,0.3-4.5c-0.3-0.6-0.5-1.3-0.7-2c0,0,0.8-0.5,1.8-1c3-1.8,5.9-3.9,8.5-6.4c8.8-8.6,11.2-22,6.5-35.7
	c-4.2-12.2-12.2-19.4-24.7-22c-1.6-0.3-3-0.6-3.1-0.6c-0.3,0,1.9-1.1,4.9-2.5c6.2-2.8,12.5-5.1,19-6.9c12.7-3.6,22.4-3.8,29.2-0.5
	c3.2,1.6,5.4,4.2,6.8,8.1c1.3,3.7,1.4,6.8,0.2,9.3c-0.8,1.6-3.8,4.5-6.6,6.3c-2.4,1.6-7.7,4.5-8.2,4.5c-0.5-0.7-0.9-1.5-1.2-2.4
	l-0.9-2.4l-1.3-0.5c-3.7-1.4-7.3,0.2-7.9,3.7l-0.3,1.3l7.2,18.3c7.1,18.1,7.2,18.3,8,18.7c1.4,0.7,3,0.8,4.5,0.4
	c1.6-0.3,2.9-1.4,3.6-2.8c0.7-1.1,0.7-2.5,0.1-3.7l-0.5-1.2l2.4-1.6c2.9-2,5.5-4.4,7.5-7.3c6.5-9.7,8.5-23.4,5.2-36.3
	c-6-23.7-22.7-39.2-44.5-41.4c-3.4-0.2-6.8-0.3-10.2-0.1 M90,580.9c-0.7,0.6-11,46.3-10.6,47.1c0.2,0.5,0.6,0.7,2.4,1.1l2.2,0.5
	l0.6-0.5c0.4-0.4,0.8-1.5,1.7-5.7c0.6-2.8,1.1-5.2,1.2-5.2s4.8,1,10.6,2.3c11.5,2.6,13.3,3.2,18.6,5.8c5,2.5,7.2,4.1,11.6,8.5
	c4.4,4.4,8.3,9.1,11.9,14.1c12.1,16.6,19.9,26.2,25.5,31.8c10.5,10.3,21.6,16.2,39,20.7c5.5,1.4,9.1,2,12.1,2c2.1,0,2.5,0.1,2.5,0.4
	s-0.4,2-0.8,3.9c-0.9,4-0.9,4.4,0.5,4.8c3,0.8,3.4,0.8,4,0.5c0.3-0.2,0.6-0.4,0.6-0.5s2.3-10.2,5-22.5c4.5-20.1,5-22.4,4.7-22.9
	s-0.9-0.6-2.1-0.9c-3.1-0.7-3.3-0.6-3.9,2.3c-0.4,1.9-0.5,2.2-1.4,2.9c-2,1.5-4.3,2.6-6.8,3.3c-1.8,0.5-2.7,0.5-6.8,0.5
	c-2.4,0.1-4.8-0.1-7.2-0.5c-6.4-1.6-12.7-3.9-18.6-6.9c-6.5-3.1-8.2-4.3-24.1-16.1c-10.4-7.7-19.6-14.4-30.3-21.8
	c-1.7-1.2-3-2.2-3-2.2s101.9,22.9,102.1,23s-0.4,2.5-1.1,5.4c-1.3,5.9-1.3,6.1,0.2,6.5c3.1,0.8,3.3,0.8,4,0.4
	c0.3-0.2,0.6-0.5,0.6-0.5s2.3-10.5,5.2-23.2c4.8-21.3,5.1-23,4.8-23.5s-0.8-0.7-2.4-1c-3.1-0.7-2.9-0.9-4.3,5.6
	c-0.3,1.8-0.8,3.6-1.3,5.3c-0.4,0-143.4-32.2-143.6-32.4c0.2-1.8,0.5-3.6,1-5.4c1.1-4.8,1.2-5.3,0.8-5.8c-0.2-0.3-0.6-0.6-1-0.7
	l-1.5-0.3l-1.5-0.3C90.8,580.5,90.4,580.6,90,580.9 M1236.1,652.2c-36,4.6-65.6,8.3-65.6,8.2c-0.2-0.8-0.4-1.7-0.4-2.6
	c-0.2-1.3-0.4-3.3-0.5-4.5l-0.3-2.1l-1.4-1.1l-1.4-1.1l-2.1,0.3l-2.1,0.3l-1,1.3c-0.5,0.5-0.8,1.2-1,1.8c0,0.5,6,47.6,6.1,47.9
	c0.4,0.5,0.9,0.9,1.4,1.2l1.3,1l2.1-0.3c2-0.3,2.1-0.3,2.9-1.2c1.5-1.7,1.4-1.5,0.7-7.1c-0.3-2.8-0.6-5.1-0.5-5.2s16.7-2.2,37-4.8
	l36.8-4.7l9.4,3.3c5.2,1.8,9.5,3.3,9.5,3.4c-0.6,0.8-1.2,1.5-1.9,2.2c-4.3,4.4-7.1,10.1-8,16.1c-0.7,4.9-0.2,9.9,1.3,14.6
	c2.2,6.2,6.2,11.6,11.4,15.6c6,4.2,12.6,5.7,24.9,5.4c4.4,0.1,8.9-0.5,13.1-1.6c8.7-2.2,13.5-5.3,18.3-12c4.3-6.1,6.3-13.5,6.3-24.3
	c0.1-4.3-0.3-8.6-1.2-12.7c-1.5-7.4-6-17.9-11.8-27.7c-3.1-5.1-9.7-14.9-10.7-15.9c-1.5-1.3-3.3-2.1-5.3-2.2
	c-1.2-0.1-19.1,2.1-67.1,8.3 M1281.6,675.4c-6.8,0.9-12.2,1.7-12.1,1.7s3.3,1.3,7.2,2.6s7.1,2.5,7.3,2.6c0.5,0.3,0.4,4.1-0.1,5.1
	c-0.7,1.3-1.9,2.3-3.3,2.8c-3.5,0.9-4.3,1.2-5.5,2.3c-4,3.6-4.1,11.9-0.1,15.5c3.4,3,9.7,4.3,18.1,3.8c15.5-1,25.9-5.8,29-13.5
	c0.4-1.2,0.6-2.4,0.6-3.7c0.4-8-3.9-15-11.5-18.6c-3.8-1.8-7.3-2.4-13.3-2.4C1294.4,673.8,1292.3,674,1281.6,675.4 M150.8,745.6
	c-6,0.5-11.9,1.8-17.6,3.7c-4.8,1.7-15.8,7.6-24.2,13c-7.7,4.9-9.3,5.9-12.8,7.9c-9.3,5.4-19.4,9.3-30,11.5c-2.6,0.5-4.2,1.3-5,2.5
	c-1,1.4-1,1.9-0.1,4.9c4.7,16.5,16.6,33.3,31.1,44.2c7.1,5.3,15,9.4,23.4,12c8.7,2.5,17.5,3,28,1.7c10-1.3,19.2-4.7,29.1-10.8
	c3-1.8,14.8-9.8,22.7-15.2c7.4-5.1,9.7-6.6,13.2-8.1c5.2-2.3,11.6-4.1,14.6-4.1c2.3,0,3.1-0.5,4.9-2.8l1.2-1.6l-0.8-2.4
	c-5.4-15.5-16-30.6-28.4-40.6c-10.4-8.3-22-13.6-33.9-15.3C161,745.4,155.9,745.3,150.8,745.6 M159,775.2
	c-8.5,0.7-15.5,2.6-25.5,7.1c-13.5,6-24.1,10.2-30.9,12c-6.6,1.8-12.1,2.4-21.7,2.6l-7.3,0.1l2.1,2.1c8.3,8.4,21.5,14.7,37.1,17.7
	c12.5,2.4,27,1.7,37.3-1.8c4.3-1.5,9.5-3.8,20.8-9.5c17.1-8.6,26.5-12.1,38.1-14c1.2-0.2,2.3-0.4,3.4-0.7c-0.6-0.7-1.2-1.2-2-1.7
	c-9.3-6.9-22.7-11.9-35.8-13.5C169.5,775.3,164.2,775.1,159,775.2 M1259.4,778.3c-6.4,0.5-12.7,1.5-18.8,3.1
	c-4.1,1.1-16.2,5-22.9,7.5c-7.4,2.8-14.9,4.9-22.7,6.5c-4.9,0.9-10,0.2-14.5-2.1c-2.2-1.2-4.2-2.5-6.1-4.1l-1.1-0.9l-1.9,1l-1.9,1
	l-0.1,1.8c-0.2,5.5,1.5,16.3,4.6,28.4c3.2,12.4,7.9,21.3,15.5,29.2c5,5.4,11.1,9.6,18,12.2c1.4,0.5,2.6,1,2.6,1
	c-0.1,0.7-0.3,1.3-0.5,2c-0.6,2-0.6,2-0.1,2.6c0.9,0.9,2.1,1.5,3.4,1.8c1.5,0.4,2.4,0,2.8-1.1c0.1-0.4,2.6-8.3,5.4-17.6
	c4.9-15.9,5.1-16.9,4.8-17.5c-1.1-1.9-3.4-2.7-5.4-1.9c-0.6,0.3-0.8,0.7-1.3,2.7c-0.2,0.9-0.5,1.7-0.8,2.5c-0.2,0.3-5.7-0.4-7.8-1
	c-5.5-1.5-9.2-3.8-13.8-8.5c-4-3.9-7.3-8.5-9.7-13.6c-1.5-3.2-2.9-6.6-2.7-6.8c0.8,0.2,1.6,0.5,2.3,0.8c9.8,4.1,20.2,5.1,32.5,3.1
	c8.5-1.4,18.2-2.7,23.4-3.2l5-0.4l1.9,0.7c8,2.8,17,9.1,20.7,14.5c3.8,5.6,4.6,11.1,2.2,15.4c-1.5,2.1-3.3,3.9-5.5,5.3
	c-3.4,1.8-8.5,1.9-15.8,0.1c-2.4-0.6-2.2-0.2-1.8-4l0.3-2.5l-0.7-0.8c-1.1-1.3-2.8-1.7-4.4-1.1c-1.5,0.8-1.4-0.2-3.8,20.4
	c-2.2,18.4-2.2,19.1-1.8,19.6c1.4,1.4,3.6,1.7,5.4,0.8c0.9-0.6,0.8-0.3,1.3-4.7l0.1-1.3h3.2c5.4,0,10.7-1.2,15.5-3.5
	c7.7-4,13.6-12.4,15.8-22.6s0.6-18.8-4.8-25.9c-3.1-3.8-6.8-7.1-10.9-9.8c-0.7-0.4-1.4-0.9-2-1.5c0-0.2,10.3,0.2,14.6,0.5
	c8.3,0.7,16.6,2.2,24.6,4.5c4.7,1.4,9.1,3.4,13.2,6c7.3,4.9,10.3,10.4,9.4,17.3c-1.2,9.2-5.6,12.8-16.4,13.3
	c-3.4,0.2-9.8,0-10.1-0.2c0-1.1,0-2.2,0.2-3.2l0.4-3.1l-0.9-0.9c-1.9-1.8-4.5-1.6-5.6,0.3c-0.2,0.4-4.5,36.4-4.5,37.8
	c0,0.7,0.2,0.9,1,1.5c1.3,0.9,3.1,1,4.5,0.3c0.9-0.6,1.1-1.1,1.3-3.6l0.2-1.3l2.4-0.2c5.1-0.3,7.8-1,11.5-2.9
	c4.3-2.3,8.1-5.5,11.1-9.2c7.1-8.5,10.9-19.3,11.3-32.5c0.4-8.3-1.2-16.5-4.8-24c-6.2-12.8-18.3-22-34.2-26
	C1283.2,778.4,1269.8,777.4,1259.4,778.3 M1128.6,868.9l-2.8,0.9l-0.6,1.3l-0.6,1.3l2.4,6.7c2,5.6,2.4,6.8,2.1,7s-7.1,4.6-15.4,9.8
	c-10.2,6.4-15.5,9.9-16.4,10.8c-1.7,2-3,4.3-3.7,6.8c-0.2,0.9-0.3,8.1-0.2,30.4l0.1,29.2l15.5,6.1c8.5,3.3,15.8,6.2,16.2,6.4
	c0.6,0.2,0.9,0.2,2-0.2l1.3-0.5l1.8-4.5c1-2.5,1.8-4.6,1.9-4.6s134.8,52.7,135.1,53c-0.4,1.6-0.9,3.1-1.5,4.6
	c-1,2.4-1.7,4.5-1.8,4.7c0.1,0.5,0.3,1,0.5,1.4c0.5,1.1,0.6,1.2,2.5,1.9l2,0.8l1.3-0.7l1.3-0.7l8.6-21.8c4.7-12,8.6-22,8.6-22.3
	c-0.1-0.5-0.3-1.1-0.5-1.5c-0.5-0.9-0.7-1.1-2.2-1.7c-2-0.8-2.3-0.8-3.7-0.1l-1.1,0.5l-1.7,4.4c-0.6,1.5-1.2,3.1-2,4.5
	c-0.2,0.1-134.7-52.7-135-53s10.7-28.2,11.1-28.3s134.7,52.6,135,53c-0.4,1.6-0.9,3.2-1.6,4.7l-1.8,4.5l0.5,1.2
	c0.6,1.3,0.9,1.6,3.1,2.4l1.6,0.5l1.2-0.5c0.7-0.2,1.3-0.7,1.6-1.4c0.7-1.6,16.8-42.7,16.9-43.2c0-0.6-0.2-1.1-0.4-1.6
	c-0.5-1.2-0.5-1.2-3.3-2.3l-1.2-0.5l-1.3,0.6l-1.3,0.6l-1.8,4.5c-0.6,1.5-1.2,3.1-1.9,4.5c-0.3,0-134.8-52.9-135-53
	c0.4-1.6,0.9-3.1,1.5-4.6c1-2.4,1.7-4.5,1.8-4.6c-0.1-0.5-0.3-1-0.5-1.4c-0.5-1.2-0.6-1.2-2.5-1.9l-2-0.7l-1.1,0.5
	c-0.5,0.2-0.9,0.4-1.4,0.8c-0.2,0.2-6.8,16.9-14.7,37.1s-14.5,37-14.6,37.1s-4-1.2-11.7-4.2c-12.1-4.7-14.6-5.9-15.8-7
	c-1-1-1.2-2.2-1.4-7.9l-0.2-4.6l18.8-11.8c20.7-13.1,21.4-13.6,22.5-16.4c0.8-2.3,0.9-4.8,0.4-7.1c-0.2-0.7-2.8-7.8-5.8-15.8
	c-3-8-5.4-14.5-5.4-14.6C1131.9,867.9,1131.2,868.1,1128.6,868.9 M189.5,899.2c-7.4,0.4-15.4,1.9-25.6,4.8c-4.5,1.3-4,1.3-4.8-0.6
	c-0.3-0.9-0.7-1.8-0.8-1.9c-0.6-0.4-1.3-0.8-2-1.1l-1.8-0.8l-2,0.7l-2,0.7l-0.9,1.9c-0.8,1.7-0.9,2-0.6,2.8
	c0.1,0.5,3.2,9.1,6.8,19.1l6.5,18.2l2,1l1.9,1l2-0.7l2-0.7l0.9-1.9l0.9-1.9l-0.9-2.6c-0.5-1.4-0.9-2.6-0.9-2.7
	c0-0.4,14.8-4.8,21.1-6.4c11.6-2.8,23-2.9,33.1-0.3c4,1.1,11.1,3.8,11.1,4.3c0,0.1-0.2,0.3-0.5,0.4c-3.1,2.3-6.1,4.8-9,7.4
	c-2,1.8-8,7.6-13.3,12.8c-12.5,12.3-15.5,14.9-23.2,20.4c-5.5,3.9-11.3,7.3-17.5,9.9c-5.1,2-10.4,3.6-15.7,5
	c-9,2.3-18.3,3.3-27.6,2.9c-11.2-0.7-17.5-3.7-20.8-9.9c-2.9-5.5-2.2-11.4,1.8-16.9c4.2-5.7,10.6-10.1,21.8-15
	c1.4-0.7,2.9-1.2,4.3-1.8c0.4,0.7,0.7,1.5,0.9,2.3l0.8,2.2l2,0.9l1.9,0.9l1.9-0.7c0.7-0.2,1.4-0.5,2.1-0.9c0.4-0.6,0.7-1.3,1-2
	l0.8-1.8l-6.8-19.1l-6.9-19.1l-1.7-0.9c-0.7-0.4-1.4-0.7-2.2-0.9c-0.8,0.1-1.6,0.3-2.3,0.6l-1.8,0.7l-0.9,2l-0.9,2l0.8,2.3l0.8,2.3
	l-3,1.6c-4,2.1-9.7,5.4-11.3,6.6c-5.1,3.7-8.8,8.4-12.2,15.5c-6,12.4-6.8,24.6-2.6,37.3c2.7,8.5,7.4,16.1,13.7,22.4
	c4.8,4.9,10.4,9,16.6,12.1c7.5,4,15.9,6,24.3,5.8c13,0,25.5-3.3,39.4-10.3c12.7-6.3,23.5-15.8,31.4-27.6c3-4.5,5.7-9.2,8.2-14.1
	c4.3-8.4,7.2-12.6,11.8-17.8c4.8-5.3,8.9-8.7,12.9-10.6l2.9-1.4c0.5-0.6,0.9-1.3,1.2-2l0.8-1.8l-0.8-2.4l-0.8-2.4l-2.8-2.7
	c-3.2-3.1-6.6-6-10.1-8.6c-14-10.5-26.8-16.1-41.9-18.3c-3-0.4-6-0.6-9-0.7C193.5,899.1,191.3,899.1,189.5,899.2"/>
<path class="st0" d="M682.3,987.1c-119.6,3.6-236.4,28.8-350.4,60.3c-3.4,1.1-6.5,2.7-9.3,4.9c-2.4,2-4.4,4.5-5.9,7.4l-1.2,2.5
	c-0.7,11.7,2.5,30.5-3,40.1c-4.8,3.7-25.1,1.2-31.9,2.5c-14.2,1.4-30.1,11.5-38.6,23.7c10.5,22.2,28.4,77.9,38.7,99.1
	c1.6-0.4,8.2-2.8,9.9-3.3c1.2-0.1,2.7-1.8,3.6-1.3c1.4,1.1-0.3,3.8,3.2,1.7c17.8-11.1,44-0.6,59-14.8c10.1-10.9,8.6-24.1,3.8-39.5
	c-2.9-6.4,9.1-6.5,13.9-8.5c218.6-59.6,433.2-60.3,652.3-1.7c2.7,0.4,7.7,2.2,10.2,2.8c3.9,1.5,12.8,1.5,9.7,7.9
	c-6.7,19.2-4.9,40.7,16.4,45.3c5.8,2.7,31.2,2.8,37.1,4.4c3.9,1,11.8,5,11.9,3.4s0.1-0.6,0.2-1.6s15,8.1,15.7,3
	c5-13.9,10.5-28.1,15.9-42.2c7.8-20,12.7-34.5,20.4-53.5c-3.1-12.1-22.8-22.3-34.5-24.6c-26.8-4.5-40.8,10.2-38.1-27.2
	c-0.1-9,1.7-17.5-4.8-23.7c-3.4-3.5-7.3-5.7-12.9-7.2l-5.5-1.6C938.9,1010.5,816,985,682.3,987.1 M676.9,994.2
	c-117,4.7-233.6,30.7-345.6,64.5c-2.9,0.7-6.4,3.4-6.4,5.1c6.2,30.1,16,59.8,23.5,89c0.1,1.3,0.5,3,2.6,1.7
	c3.6-1.4,7.3-2.6,11.1-3.6c236.5-67.1,438.8-67.3,675.3-0.4c1.7,0.5,3.8,1.1,4.6,1.3l4.6,1.4c3,0.4,3.9,2.9,5.4,0.7
	c0.5-1,2.8-9.1,3.2-11.3c3-10.7,5.3-19.5,8.1-29.6c3.4-12.5,6.4-23.6,9.8-36.3c1.7-6.9,6.1-15.4-3.1-17.9c-1.5-0.4-7.7-2.2-9.6-2.8
	C937.1,1019.5,806,991.5,676.9,994.2 M1081.8,1106.9c-6.3,22.5-16.3,51.9-21.8,72.4c-11,32,32.1,19.8,48.2,26.4
	c10.2,3,9.7,8.8,13.9-4.2c9.1-24.6,15.7-42.9,25.2-67.8c0.6-3.3,3.2-5,1.8-7.8c-4.1-4.2-13.4-9.4-19.2-10.8
	C1114.6,1113.7,1094.8,1117.2,1081.8,1106.9 M322.1,1109.6c-9.9,7.9-13.8,5.5-33.3,6.4c-11.7-0.9-23.2,3.3-31.5,11.6
	c-1.3,0.1,27.5,73.1,27.7,75c4.6,15.7,2.7-0.2,35.9,0.3c12.5-1.4,27.1,0.7,27.2-13.4c-3.7-25.5-15.4-52-22.3-77.6
	C324.2,1107.5,324.6,1106.9,322.1,1109.6"/>
<g>
	<path class="st0" d="M876.5,943.9c-0.3-0.7,10.7-2.7,23.1-11.8c12.7-9.3,21.9-20.1,32.9-46.4c9.7-32.4,17.1-65.4,22.1-98.9
		c0,0,0.5-18.1,16.2-20.6c6.2-1,16.5,0.9,16.5,0.9l14.4,4.5c0,0,7,4.1,10.4,9.6c3.5,5.4,2.9,12.1-3.5,24.7
		c-6.3,12.6-26,50.3-26,50.3s-19.4,35.7-32.3,49.1c-12.9,13.4-20,20.9-38.6,30.8C900.5,942.1,876.7,944.5,876.5,943.9z"/>
	<path class="st1" d="M964.3,727.4c1.7-0.5,3.5-0.8,5.3-1.1c1.8-0.3,3.6-0.4,5.4-0.4c3.8-0.2,7.6,0.6,11,2.1l-0.2-0.1
		c0.5,0.2,1.1,0.4,1.6,0.7c0.5,0.2,1,0.5,1.4,0.8c0.9,0.6,1.8,1.2,2.7,1.9c1.7,1.4,3.2,3,4.5,4.7c2.6,3.6,4.5,7.6,5.6,11.9
		c0.3,1,0.5,2.1,0.8,3.2s0.4,2.2,0.5,3.3c0.3,2.2,0.4,4.5,0.4,6.8c-0.1,2.3-0.3,4.7-0.7,7c-0.2,1.2-0.5,2.4-0.8,3.6
		c-0.2,0.6-0.4,1.2-0.6,1.8c-0.1,0.3-0.2,0.6-0.3,1c-0.1,0.2-0.1,0.3-0.2,0.5c-0.1,0.2-0.2,0.5-0.3,0.7c-2.7,3.4-7.6,4.1-11,1.4
		c-3.2-2.5-4-7-1.8-10.4c-0.1,0.2,0,0.1,0.1,0.1c0.1,0,0.1-0.1,0.2-0.1c0.1-0.1,0.3-0.2,0.4-0.3c0.2-0.2,0.5-0.5,0.8-0.8
		c0.5-0.6,1-1.2,1.4-1.9c0.9-1.4,1.7-2.9,2.2-4.4c1.2-3.3,1.8-6.7,1.8-10.2c0-3.5-0.9-7-2.6-10.1c-0.9-1.5-1.9-3-3.1-4.3
		c-0.6-0.6-1.3-1.3-1.9-1.8c-0.3-0.3-0.7-0.5-1.1-0.8c-0.4-0.2-0.8-0.5-1-0.7l-0.2-0.1c-1.3-0.9-2.8-1.6-4.3-2.1
		c-1.6-0.5-3.3-0.9-4.9-1.1c-3.5-0.4-6.9-0.4-10.4,0l0,0c-0.2,0-0.4-0.1-0.4-0.3C964,727.7,964,727.5,964.3,727.4
		C964.3,727.4,964.3,727.4,964.3,727.4z"/>
</g>
<g>
	<path class="st1" d="M748.4,591.1c-2.3-2.8-4.3-5.7-6.2-8.8c-1.9-3.1-3.5-6.3-5-9.6c-3.1-6.8-5-14-5.7-21.4
		c-0.3-3.9,0-7.8,0.8-11.7c1-4,2.7-7.8,5.2-11.1c2.2-3,4.6-5.9,7.2-8.6c2.5-2.6,5-5,7.5-7.5c4.9-4.8,9.7-9.5,12.9-14.7
		c1.6-2.5,2.7-5.2,3.3-8.1c0.1-0.7,0.3-1.4,0.3-2.1c0.1-0.8,0.2-1.7,0.2-2.5c0.1-1.7,0.2-3.3,0.3-5c0.1-3.3,0.1-6.7-0.1-10
		c-0.3-3.3-0.8-6.7-1.5-9.9c-1.5-6.7-3.5-13.2-6.1-19.6v-0.1c-0.4-0.9,0.1-2,1.1-2.4c0.8-0.3,1.8,0,2.2,0.8c1.8,3.2,3.3,6.3,4.8,9.6
		c1.5,3.3,2.8,6.6,4,10c1.2,3.4,2.2,7,3,10.5c0.4,1.8,0.7,3.6,1,5.4c0.2,1.8,0.4,3.7,0.5,5.5c0.1,1.8,0.1,3.7,0.1,5.5
		c0,0.9,0,1.8-0.1,2.7s-0.2,2.1-0.3,3.1c-0.7,4-2.1,7.8-4.1,11.4c-1.9,3.3-4.1,6.4-6.6,9.3c-2.4,2.8-4.9,5.4-7.4,7.9
		c-5,5-10,9.6-13.8,14.6c-1.8,2.2-3.1,4.8-4,7.5c-0.8,3-1.2,6-1.2,9.1c0,3.2,0.3,6.5,0.8,9.6c0.5,3.3,1.3,6.5,2.3,9.7
		c1.9,6.5,4.4,12.9,7.3,19.1v0.1c0.3,0.8,0,1.7-0.7,2c-0.6,0.3-1.4,0.1-1.8-0.4L748.4,591.1z"/>
	<path class="st1" d="M770.6,364.3c13.1,13,24.9,27.3,35.1,42.6c2.6,3.8,5.1,7.7,7.5,11.7c2.4,4,4.6,8.1,6.8,12.4
		c4.1,8.6,7.5,18.1,8.2,28.5c0.2,2.6,0.1,5.2-0.1,7.8c-0.2,2.6-0.6,5.2-1.2,7.8c-1.2,5.1-3.3,10-6,14.4c-2.7,4.3-5.9,8.3-9.5,11.8
		c-3.4,3.2-6.9,6.3-10.4,9.2c-3.6,2.9-7.2,5.8-10.8,8.6l-10.7,8.4c-7.2,5.6-14.4,11.2-21.9,16.5c-0.9,0.6-2.1,0.4-2.7-0.5
		c-0.5-0.8-0.5-1.8,0.2-2.4l0,0c6.3-6.6,12.6-13.1,19-19.6c3.1-3.3,6.5-6.5,9.7-9.7l9.6-9.6c3.1-3.2,6.3-6.4,9.2-9.6
		c2.8-2.9,5.2-6.1,7.2-9.6c3.9-6.8,5.5-14.6,4.7-22.4c-1.3-15.9-10.6-31.6-18.9-47.4c-8.6-15.7-18.1-31.1-27.8-46.5v0
		c-0.6-0.9-0.3-2,0.5-2.6C768.9,363.5,769.9,363.6,770.6,364.3L770.6,364.3z"/>
	<path class="st1" d="M803.8,514c2.5,3.4,4.7,6.9,6.6,10.6c1,1.8,1.9,3.7,2.8,5.7c0.8,2,1.5,4.1,2,6.2c1.2,4.6,1.4,9.3,0.7,14
		c-0.4,2.5-1.2,4.9-2.3,7.1c-0.3,0.6-0.6,1.2-1,1.8l-0.5,0.9l-0.7,0.9c-0.8,1-1.8,2-2.8,2.9c-3.5,3-7.5,5.5-11.8,7.1
		c-4.1,1.6-8.3,2.7-12.6,3.4c-2.1,0.3-4.1,0.6-6.1,0.8c-2,0.2-4,0.4-6.1,0.5c-4.1,0.3-8.1,0.4-12.2,0.2c-1.1,0-2-1-2-2.2
		c0-0.8,0.6-1.6,1.3-1.8l0,0c3.8-1.5,7.6-2.7,11.4-3.8l5.7-1.7c1.9-0.5,3.8-1.1,5.6-1.7c3.5-1.1,6.9-2.5,10.2-4.1
		c3.1-1.4,5.9-3.3,8.5-5.5c0.5-0.4,1-0.9,1.4-1.4l0.2-0.3l0.3-0.4c0.2-0.2,0.3-0.6,0.5-0.9c0.7-1.3,1.2-2.7,1.7-4.2
		c0.9-3.2,1.2-6.5,0.9-9.8c-0.2-1.7-0.6-3.6-0.9-5.4c-0.3-1.8-0.7-3.7-1.2-5.6c-0.9-3.8-2-7.6-3.3-11.3v-0.1c-0.5-1-0.1-2.2,0.8-2.7
		C802,512.6,803.2,513,803.8,514L803.8,514z"/>
</g>
<path class="st0" d="M508.5,633.1c0,0-4.4-17.3-7.6-24c-2.5-6.7-7.8-8.1-7.8-8.1c-3.7-1.1-5-0.5-9.2,0.5c-4.2,1-11.2,9.3-11.2,9.3
	c-3.1,2.8-5.1,3.7-9.7,4.5s-10.2-3.6-10.2-3.6c-2.8-1.9-1.5-2.5-5.6-1.8l-19.7,3.4l-63.1,11c-9.3,2.6-11.6,3-7.7,14.3
	c0.7,3.2,13.1,44.6,15.8,53.3s12.1,2.7,12.1,2.7l43.6-16.6l35.6-13.7c2.3-0.3,3.3-3.4,3.3-3.4l1.7-3.9c2.6-5.1,6-5.8,8.3-6.6
	s7.7-0.2,13.3,1.9c5.6,2.1,12.4-1,12.4-1s4.1-1.3,5.7-7.1C509.4,640.7,509.4,636.8,508.5,633.1z M418.3,675l-26.4,10
	c0,0-10.2,4.5-13.5-3.7s-6.9-22.4-6.9-22.4s-4.4-15.4-4.5-18.4c0-1.7-1-4.4,0.5-6.9c1.3-2,3.3-2.1,6.2-3c6.9-2,29.5-6.2,33.5-6.8
	c4-0.5,7.2-2.2,10.6,2.3c3.4,4.5,4.5,15.4,4.5,15.4s-0.4,6,5.8,9.9c6.2,3.9,7.8,4.3,10,8.3s3.2,6.3,3.2,6.3L418.3,675z"/>
<g>
	<path class="st0" d="M735.8,714.6c0,0,11.8-1.3,18.9,7.8c7.1,9.1,10.1,22.5,8.6,27.7c-1.5,5.2-5.7,15.1-24.5,15.9
		s-30.7-9.3-32.1-14c-0.3-0.9-1.5-2.3-1.7-3.7c-1-6.1-2.5-14.7,10.2-25C721.1,718.6,728.3,715.5,735.8,714.6z"/>
	<path class="st0" d="M505.2,857.9c0.4-0.7,37.9,24.4,78.7,28.2c40.8,3.8,81,6.3,129.6-0.2c48.6-6.4,84.3-27.9,93.5-35.5
		c9.2-7.6,21.9-16.7,31.9-37.8s9.4-47.6,7.9-57.8s-2.5-15.7-3.2-18.7c0,0-0.2-1-0.4-1.4c0,0-0.7-1.4-0.4-1.6s1,1.1,1,1.1l2.4,4.5
		c0,0,2,4,2.4,5c0,0,4.8,11,5.8,14.2c0,0,24.5,58.5-6.8,105.7c-10.6,16.3-24.8,30-41.4,40c-27.5,16.7-60.2,24.5-80.8,26.9
		c-39.7,4.6-71.5,6.3-103.8,2.8c-32.3-3.6-35.9-2-54.4-10.9c-12.4-6-23.7-14.1-33.4-23.9c-3-3.1-12.9-14.1-17.5-21.1
		C516.2,877.5,504.8,858.6,505.2,857.9z"/>
	<path class="st0" d="M660.2,806.2c0,0,21.5-30.7,30.2-35.6c8.7-4.9,9.1-6.9,15.8-3.9c6.3,2.8,13.3,7.2,24.3,7.6s21.9,2.2,35.7-7.2
		c13.9-9.5,7.5-24.9,6.7-26.7c-0.8-1.8-4.5-10.2-4.7-13s-2.6-11.3,10-17.3c12.6-6,16.7-9.2,25.5-6.5s15.9,12,20,24.6
		c4.1,12.6,10.7,33,8.8,54.1c-1.9,21.7-11.9,38.9-20.1,46.2c-9.2,8.1-23.2,24.8-76.6,36.9c-19.6,4.4-53.6,8.3-81.9,10
		c-23.8,1.4-17.1-19-16.8-20.3c3.2-11.3,5.5-18.5,11.7-30.1C653.9,815.6,660.2,806.2,660.2,806.2z"/>
	<path class="st0" d="M797.4,681.3c0,0,0-7.1-16.3-20.7c-9.8-8.2-20.7-15.1-32.3-20.5c0,0-25.5-12.6-51.2-11.3
		c-25.6,1.3-33.8,6.8-47.6,13.2c-13.8,6.4-31.2,35.4-31.2,35.4s-2.7,4.4-6.7,11.1c1.3,1.1,2.2,2.9,2.2,4.8c0,3.3-2.2,6.2-5.2,6.1
		c-1,0-2.1-0.5-2.9-1.2c-6.7,10.9-14.8,24.1-21.6,34.8c-14.2,22.4-31.2,32.4-41.3,38.7c-10.1,6.3-23.5,12.7-37.1,21.3
		c-13.6,8.6-14.3,20-11.7,27.5c2.5,7.4,11.5,15.1,18.8,21c7.3,5.9,22.9,13.3,22.9,13.3l34.4,13c0,0,34.3,12.1,45.3,3.2
		c9.5-7.7,7.6-10.3,12.6-26.5c5.7-18.2,14.2-28,22.4-39c7.6-10.2,29.9-33.8,29.9-33.8l5.1-6.3c5.1-6.3,5.7-11,5.5-19.4
		c-0.5-13.6,1-17.4,3.7-23.4c6.4-14.5,18.4-15.3,22.8-17.5c4.4-2.1,23.5-4.2,30.2-0.9c5.9,3,12,3.3,18.9,0.7
		c6.9-2.6,26.8-12.1,26.8-12.1C799.5,689.5,797.4,681.3,797.4,681.3z M583.9,781.2c-2.4,1.3-5.4,0.3-7-2.5c-1.4-2.3-0.9-5.2,1.1-6.9
		c2.1-1.4,5.1-0.7,6.9,2.1C586.7,776.8,586,780.1,583.9,781.2z M618.5,740.3c-3,0.2-5.3-2.3-5.3-5.5c0-3.4,2.1-5.3,3.8-5.5
		c2.9-0.1,5.3,2,5.5,4.9C622.7,737.3,620.9,740.2,618.5,740.3z M631.2,699.2c1.3-2.8,3.8-4.1,6.2-3.1c2.5,1.4,3.5,4.4,2.4,7
		c-1.3,2.8-4,4.5-6.5,3.3C630.9,705.3,629.9,702,631.2,699.2z M634.2,720.5c2-2.3,4.6-3.1,6.7-1.6c2,1.3,2.7,4.9,0.8,7.3
		s-4.6,3.3-7.3,1.8C632.6,727,632.2,722.7,634.2,720.5z M645.1,754c-1.8,2.9-5,3.9-7,2.6c-2.3-1.5-2.8-4.7-1-7.4
		c1.3-2.3,4.2-3.3,6.6-2.2C645.9,748.1,646.6,751.4,645.1,754z"/>
</g>
<g>
	<path class="st0" d="M591.2,670.5c1.7,2.3,4.8,2.9,7.3,1.6c2.1-1.4,2.2-4.8,0.4-7.3c-1.7-2.3-4.8-2.9-7.2-1.4
		C589.5,664.9,589.4,668,591.2,670.5z"/>
	<path class="st0" d="M566.2,681.8c0.5,2.8,3,4.8,5.9,4.6c2.5-0.4,4-3.4,3.6-6.4c-0.5-2.8-3.1-4.7-5.9-4.5
		C567.1,676.1,565.7,678.8,566.2,681.8z"/>
	<path class="st0" d="M563.4,658.9c0.5,2.8,2.9,4.8,5.7,4.8c2.5-0.3,4.1-3.3,3.7-6.3c-0.5-2.8-2.9-4.8-5.8-4.6
		C564.5,653.2,563,655.9,563.4,658.9z"/>
	<path class="st0" d="M568.4,641.9c3.4-0.4,5.2-2.7,5.2-4.9s-1.9-4.5-5.9-4.4c-2.8,0-5.1,2.3-5.1,5.1c0,0,0,0,0,0
		C562.8,640.4,565.4,642.2,568.4,641.9z"/>
	<path class="st0" d="M540,652.7c2,2.6,5.2,3.2,7.2,1.9c2.3-1.6,2.4-4.8,0.6-7.3s-5.3-3.1-7.1-1.7
		C538.4,647.2,538.1,650.3,540,652.7z"/>
	<path class="st0" d="M537.1,632.8c2.7,1.8,6,1.3,7.4-0.5c1.7-2.2,0.7-5.3-1.8-7.1c-2.5-1.7-6-1.2-7.2,0.7
		C533.8,628.1,534.5,631.1,537.1,632.8z"/>
</g>
</svg>
